<svg width="180" height="260" viewBox="0 0 180 260" fill="none" xmlns="http://www.w3.org/2000/svg">
  <defs>
    <linearGradient id="logoShade" x1="0" y1="0" x2="180" y2="260" gradientUnits="userSpaceOnUse">
      <stop offset="0" stop-color="#2a2d34"/>
      <stop offset="0.45" stop-color="#11151d"/>
      <stop offset="1" stop-color="#010204"/>
    </linearGradient>
  </defs>
  <path fill-rule="evenodd" clip-rule="evenodd" d="M80.3058 16.7486C109.557 5.45008 142.021 19.9758 156.192 50.6295C178.608 99.1128 180.472 166.608 151.366 214.116C126.321 254.998 71.9324 269.275 31.9606 244.602C-0.158697 224.781 -10.6356 184.463 11.1804 153.581C31.5842 124.697 68.6608 117.272 97.9702 136.161L103.23 139.55L86.5174 149.463C68.1768 160.342 59.6898 182.404 66.0177 202.899C73.617 227.514 101.758 238.152 123.093 224.089C145.507 209.315 154.434 180.112 154.964 153.806C155.694 117.511 147.161 81.9114 131.556 50.1545C121.073 28.8178 94.7315 20.7433 74.0826 32.5221C53.6688 44.1668 45.7695 70.1289 58.0376 90.6163L63.7018 100.077C52.3881 106.894 39.9363 109.196 26.9989 105.355L22.8982 104.138C5.52988 98.9833 -3.86265 79.7381 2.42175 62.7258C13.974 31.4638 45.0176 11.0623 80.3058 16.7486Z" fill="url(#logoShade)"/>
  <ellipse cx="84.5" cy="167" rx="36.5" ry="52" fill="#090d14"/>
</svg>
